<?xml version="1.0" encoding="utf-8"?>
<!-- Generator: Adobe Illustrator 15.0.0, SVG Export Plug-In . SVG Version: 6.00 Build 0)  -->
<!DOCTYPE svg PUBLIC "-//W3C//DTD SVG 1.1//EN" "http://www.w3.org/Graphics/SVG/1.1/DTD/svg11.dtd">
<svg version="1.1" id="Layer_1" xmlns="http://www.w3.org/2000/svg" xmlns:xlink="http://www.w3.org/1999/xlink" x="0px" y="0px"
	 width="360px" height="360px" viewBox="0 0 360 360" enable-background="new 0 0 360 360" xml:space="preserve">
<g>
	<g>
		<path fill="#FFFFFF" d="M174.596,127.055c0,1.141,0.063,2.048,0.188,2.724c0.126,0.677,0.318,1.213,0.579,1.608
			s0.613,0.705,1.058,0.927s1.14,0.439,2.086,0.652v1.419h-12.719v-1.419c1.198-0.309,1.999-0.652,2.405-1.029
			c0.405-0.376,0.671-0.912,0.797-1.607c0.125-0.695,0.188-1.757,0.188-3.188v-25.061c0-1.333-0.048-2.303-0.145-2.911
			s-0.256-1.082-0.478-1.42c-0.223-0.337-0.518-0.608-0.884-0.812c-0.367-0.202-0.995-0.43-1.884-0.681v-1.42h14.37
			c4.52,0,7.886,0.865,10.097,2.594c2.212,1.729,3.317,4.359,3.317,7.895c0,2.01-0.348,3.814-1.043,5.418s-1.68,2.916-2.955,3.939
			c-1.274,1.025-2.781,1.758-4.52,2.202c-1.738,0.445-3.563,0.667-5.476,0.667c-2.144,0-3.805-0.039-4.983-0.116V127.055z
			 M174.596,115.031h3.361c2.183,0,3.983-0.284,5.403-0.854c1.419-0.568,2.506-1.516,3.259-2.839c0.753-1.322,1.13-3.075,1.13-5.259
			c0-1.661-0.222-3.046-0.666-4.157c-0.444-1.11-1.058-2.003-1.84-2.68c-0.782-0.676-1.714-1.154-2.796-1.435
			c-1.081-0.279-2.26-0.42-3.534-0.42c-1.912,0-3.352,0.039-4.317,0.116V115.031z"/>
	</g>
	<g>
		<path fill="#FFFFFF" d="M157.99,273.008v-1.854l15.153-38.156h4.288l12.226,38.156v1.854H157.99z M163.118,268.372h20.165
			l-9.126-28.973L163.118,268.372z"/>
	</g>
	<g>
		<path fill="#FFFFFF" d="M244.909,162.044h31.348v10.082h-2.839c-0.425-1.661-0.845-2.974-1.261-3.94
			c-0.415-0.966-0.854-1.698-1.317-2.201c-0.464-0.503-0.961-0.859-1.492-1.072s-1.328-0.319-2.391-0.319h-3.68v29.668
			c0,1.141,0.063,2.047,0.188,2.724c0.126,0.677,0.319,1.213,0.58,1.607c0.261,0.396,0.613,0.706,1.057,0.927
			c0.444,0.223,1.14,0.439,2.086,0.652v1.42h-13.24v-1.42c0.58-0.135,1.092-0.279,1.536-0.435c0.444-0.154,0.807-0.343,1.086-0.565
			c0.28-0.221,0.513-0.507,0.695-0.854c0.184-0.348,0.329-0.82,0.435-1.419c0.106-0.599,0.16-1.478,0.16-2.637v-29.668h-3.65
			c-0.908,0-1.656,0.087-2.246,0.261c-0.589,0.174-1.135,0.536-1.637,1.087s-0.961,1.333-1.376,2.347s-0.807,2.294-1.174,3.839
			h-2.868V162.044z"/>
	</g>
	<g>
		<path fill="#FFFFFF" d="M91.758,202.054c-5.061,0-8.909-1.698-11.545-5.099c-2.636-3.399-3.955-8.334-3.955-14.805
			c0-6.528,1.463-11.589,4.389-15.182c2.926-3.593,6.833-5.389,11.719-5.389c5.138,0,9.049,1.695,11.734,5.085
			c2.685,3.39,4.027,8.271,4.027,14.646c0,6.645-1.444,11.762-4.331,15.354C100.909,200.258,96.896,202.054,91.758,202.054z
			 M82.111,181.339c0,5.93,0.874,10.44,2.622,13.53c1.748,3.09,4.302,4.636,7.663,4.636c3.245,0,5.703-1.511,7.373-4.534
			c1.671-3.023,2.506-7.171,2.506-12.443c0-5.969-0.874-10.527-2.622-13.675s-4.245-4.723-7.489-4.723
			C85.462,164.13,82.111,169.866,82.111,181.339z M98.364,177.109v8.981H96.22c-0.425-1.738-1.372-2.607-2.839-2.607h-2.376
			c-0.83,0-1.434,0.179-1.811,0.535c-0.376,0.358-0.71,1.048-1,2.072h-2.173v-8.981h2.173c0.386,1.777,1.439,2.665,3.158,2.665
			h1.738c1.004,0,1.719-0.198,2.144-0.594c0.425-0.396,0.753-1.087,0.985-2.071H98.364z"/>
	</g>
	<g>
		
			<rect x="113.388" y="170.194" transform="matrix(-0.7071 -0.7071 0.7071 -0.7071 32.6938 496.8854)" fill="#FFFFFF" width="11.726" height="142.955"/>
		<path fill="#FFFFFF" d="M295.431,128.059l-1.418-21.366c-0.116-1.744-1.223-4.183-2.458-5.418l-11.808-11.808l4.95-4.951
			l-0.002-0.003l0.4-0.4c0.741-0.741,0.741-1.955,0-2.696l-5.593-5.593c-0.741-0.741-1.954-0.741-2.696,0l-5.352,5.353
			l-14.898-14.897c-1.235-1.237-3.258-1.237-4.493,0l-21.375,21.373c-1.235,1.236-1.235,3.259,0,4.495l14.897,14.897l-69.298,69.298
			l8.293,8.292l69.297-69.299l11.809,11.809c1.235,1.235,3.674,2.341,5.418,2.457l21.366,1.418
			C294.214,131.136,295.546,129.803,295.431,128.059z"/>
		<path fill="#FFFFFF" d="M118.729,121.464c-0.14-0.14-0.258-0.416-0.262-0.613c0,0-0.358-17.142-9.226-26.011
			c-8.869-8.869-22.059-7.774-22.059-7.774c-0.197,0.017-0.473-0.085-0.612-0.225l-6.422-6.422c-0.14-0.14-0.39-0.344-0.555-0.452
			l-6.41-4.219c-0.165-0.109-0.413-0.082-0.55,0.062l-3.504,3.504c0,0,19.754,19.842,19.832,19.832
			c3.308-0.384,9.018-1.06,12.997,2.92c2.818,2.818,5.303,10.425,6.515,14.624c-0.57,0.354-1.073,0.798-1.507,1.303
			c-0.505,0.435-0.95,0.938-1.303,1.507c-4.199-1.211-11.807-3.696-14.625-6.515c-3.979-3.979-3.302-9.688-2.919-12.996
			c0.009-0.077-19.833-19.832-19.833-19.832l-3.503,3.504c-0.143,0.137-0.171,0.385-0.062,0.549l4.218,6.411
			c0.11,0.165,0.313,0.415,0.453,0.555l6.421,6.422c0.14,0.14,0.241,0.415,0.225,0.612c0,0-1.094,13.189,7.775,22.058
			c8.869,8.87,26.01,9.227,26.01,9.227c0.198,0.004,0.474,0.122,0.614,0.262l166.35,166.35c0.14,0.141,0.369,0.14,0.508,0
			l3.024-3.021c0.139-0.141,0.139-0.37,0-0.509L123.976,136.231c-0.138-0.138-0.897-1.007-0.338-1.566
			c0.535-0.535,1.439,0.189,1.577,0.326l156.343,156.343c0.14,0.141,0.368,0.14,0.509,0l3.012-3.012c0.14-0.14,0.141-0.368,0-0.509
			L118.729,121.464z"/>
	</g>
</g>
</svg>
